<?xml version="1.0" standalone="no"?>
<!DOCTYPE svg PUBLIC "-//W3C//DTD SVG 20010904//EN"
 "http://www.w3.org/TR/2001/REC-SVG-20010904/DTD/svg10.dtd">
<svg version="1.0" xmlns="http://www.w3.org/2000/svg"
 width="240.000000pt" height="240.000000pt" viewBox="0 0 240.000000 240.000000"
 preserveAspectRatio="xMidYMid meet">

<g transform="translate(0.000000,240.000000) scale(0.100000,-0.100000)"
fill="#000000" stroke="none">
<path d="M0 1200 l0 -1200 1200 0 1200 0 0 1200 0 1200 -1200 0 -1200 0 0
-1200z m1211 812 c31 -20 50 -27 64 -21 63 24 122 8 614 -170 209 -75 250
-100 290 -170 43 -78 40 -95 -154 -681 -98 -294 -186 -551 -196 -571 -37 -74
-115 -116 -198 -106 -25 3 -174 51 -331 107 l-285 102 -125 -36 c-142 -41
-178 -43 -236 -17 -46 21 -77 59 -100 123 -34 96 -315 1015 -320 1050 -9 56 4
105 39 144 38 45 70 58 269 118 86 25 169 53 185 61 15 8 39 15 53 15 14 1 81
18 150 40 159 49 218 51 281 12z m409 -62 c21 -11 41 -24 45 -30 3 -5 -7 -3
-22 5 -15 8 -50 21 -78 29 -46 13 -47 14 -17 15 18 1 50 -8 72 -19z"/>
<path d="M1173 1963 l27 -4 -25 -33 c-14 -18 -25 -37 -25 -42 0 -5 11 8 25 28
14 20 33 42 43 47 13 8 7 10 -28 9 -29 -1 -35 -2 -17 -5z"/>
<path d="M1125 1823 c-10 -26 -31 -78 -47 -115 -15 -36 -28 -75 -28 -86 0 -10
-3 -22 -7 -26 -5 -4 -8 -11 -9 -14 0 -4 -4 -14 -7 -22 -15 -35 -179 -537 -182
-555 -2 -11 -15 -60 -29 -109 -15 -50 -25 -94 -23 -100 2 -5 13 24 25 66 13
41 92 283 177 538 84 256 152 466 150 468 -1 2 -11 -18 -20 -45z"/>
<path d="M781 737 c-1 -44 20 -117 34 -117 3 0 0 10 -6 23 -7 12 -16 49 -19
82 l-7 60 -2 -48z"/>
<path d="M820 607 c0 -2 15 -16 33 -33 l32 -29 -29 33 c-28 30 -36 37 -36 29z"/>
<path d="M897 539 c7 -7 15 -10 18 -7 3 3 -2 9 -12 12 -14 6 -15 5 -6 -5z"/>
</g>
</svg>
